<?xml version="1.0" encoding="utf-8"?>
<!-- Generator: Adobe Illustrator 24.1.2, SVG Export Plug-In . SVG Version: 6.00 Build 0)  -->
<svg version="1.1" id="Layer_1" xmlns="http://www.w3.org/2000/svg" xmlns:xlink="http://www.w3.org/1999/xlink" x="0px" y="0px"
	 viewBox="0 0 87.8291016 70" style="enable-background:new 0 0 87.8291016 70;" xml:space="preserve">
<style type="text/css">
	.st0{fill:#E1232D;}
	.st1{fill:#FFFFFF;}
</style>
<g>
	<g>
		<path class="st0" d="M43.9145508,69.9999542c24.2531509,0,43.9145508-15.475872,43.9145508-34.5661659
			S68.1677017-0.000016,43.9145508-0.000016C19.6616135-0.000016,0,16.3434963,0,35.4337883
			s19.6617336,34.566227,43.914669,34.566227"/>
	</g>
</g>
<g>
	<path class="st1" d="M12.4858284,46.9534492l-0.9871988-1.4159203l-3.7656488,2.625515l0.9627743,1.3807755
		c0.8681641,1.2451553,2.1368113,1.2560806,3.1660576,0.5383835C13.006587,49.284008,13.2664995,48.0730782,12.4858284,46.9534492z
		 M11.3016891,49.278862c-0.5120974,0.3570976-1.3704758,0.5601158-1.9481125-0.2683678l-0.3781242-0.5421906l2.3849821-1.6629524
		l0.3920345,0.562397C12.2601328,48.0957451,11.9594078,48.8202477,11.3016891,49.278862z"/>
	<path class="st1" d="M15.0056076,50.0701447l-4.5511656,1.9055481l0.6913185,0.7111053l0.8148823-0.3737946l1.386858,1.4266357
		l-0.3966742,0.8039627l0.6998692,0.7198601l2.037672-4.4909782L15.0056076,50.0701447z M13.744174,52.9356804l-0.9644213-0.9921379
		l1.8693771-0.8524017L13.744174,52.9356804z"/>
	<polygon class="st1" points="19.6630287,54.1260109 17.7335682,56.7189636 18.0441837,52.8974495 17.2640343,52.3053818 
		14.4886646,55.9623032 15.2200756,56.5173759 17.1421108,53.9341164 16.8242836,57.7349091 17.6190701,58.3380051 
		20.3944321,54.6810837 	"/>
	<polygon class="st1" points="24.1509132,56.8397446 22.1915665,58.1744537 22.2557735,55.8018379 21.278677,55.2666626 
		19.073431,59.2931557 19.8787251,59.7342453 21.4842777,56.7262764 21.4121361,59.457428 21.5195255,59.5162773 
		23.7791786,57.990078 22.1121082,60.9574471 22.9174042,61.3985367 25.1226501,57.3719368 	"/>
	<path class="st1" d="M27.3783932,58.2941055l-3.342905,3.6274529l0.9245358,0.3584366l0.584959-0.6791611l1.8547459,0.7190475
		l-0.0256596,0.8959846l0.935873,0.3628654l-0.0184479-4.9306183L27.3783932,58.2941055z M27.4253883,61.4239883
		l-1.2896748-0.5000381l1.3439865-1.5534019L27.4253883,61.4239883z"/>
	<path class="st1" d="M32.4404221,59.9571609l-1.9393578-0.517662L29.31744,63.8742027l0.9283504,0.24786l0.4544849-1.7029419
		l0.7627392,0.2035446l0.4915848,1.9554291l1.0939693,0.2919693l-0.6153603-2.1088905
		c0.5633125-0.0459671,1.0582008-0.3572998,1.2380371-1.0314064C33.9442482,60.7068062,33.262413,60.1764679,32.4404221,59.9571609z
		 M32.7228012,61.5336418c-0.1152191,0.4317169-0.5007591,0.499836-0.9087715,0.3909035l-0.9164982-0.2445602l0.3140182-1.1767235
		l0.9106236,0.2430191C32.5479126,60.8599472,32.8411102,61.0901871,32.7228012,61.5336418z"/>
	<polygon class="st1" points="37.7114449,60.9977379 35.7012939,62.6116371 35.9937706,60.7307167 35.080471,60.5886993 
		34.3752403,65.1248169 35.2884369,65.2668304 35.5348511,63.682209 36.0548897,63.2860527 37.1633797,65.5583878 
		38.3005295,65.7351303 36.7923737,62.7256203 38.842514,61.1735535 	"/>
	<path class="st1" d="M41.3505478,63.0964203c-0.5414734-0.1781845-0.9315491-0.3231888-0.912899-0.6469994
		c0.0143318-0.2504272,0.3184547-0.4230537,0.7400665-0.3988342c0.4703598,0.0270996,0.7867508,0.3885269,0.8516731,0.539299
		l0.815506-0.4311905c-0.1815872-0.3598824-0.6861649-0.8608513-1.620903-0.9145432
		c-0.9652443-0.0554428-1.6904716,0.4055328-1.7365341,1.2058868c-0.048027,0.836937,0.6264915,1.1515732,1.3063698,1.3744888
		c0.6079369,0.1942635,1.107975,0.3456612,1.0820084,0.7977791c-0.0196838,0.3420486-0.350708,0.5559998-0.8883629,0.5250854
		c-0.5681648-0.0326767-0.8874435-0.44944-1.0122414-0.7324371l-0.8283882,0.4428406
		c0.1561356,0.3766785,0.7237816,1.0590286,1.8051758,1.1211777c1.1179771,0.0643005,1.8574219-0.5368423,1.9044189-1.3555298
		C42.9115753,63.6642761,42.1749115,63.3644791,41.3505478,63.0964203z"/>
	<path class="st1" d="M47.8468323,61.2363205l-1.7193222,0.148922l0.3961601,4.5724983l1.6765518-0.1453171
		c1.5119743-0.1309891,2.1543312-1.2246399,2.0460167-2.4744377C50.1257629,61.9479408,49.2062798,61.1185226,47.8468323,61.2363205
		z M48.0663528,64.9764099l-0.6583366,0.0569992l-0.2509499-2.8958435l0.6828613-0.0591507
		c0.8839378-0.0765762,1.3617134,0.5453796,1.4308701,1.3440895C49.3246956,64.0443573,49.0723076,64.8892288,48.0663528,64.9764099
		z"/>
	<path class="st1" d="M52.8188896,60.4650307c-1.3334732,0.2631111-1.9584198,1.4285965-1.6976776,2.7500114
		c0.2702141,1.3694382,1.3127556,2.1621704,2.6221085,1.903801c1.2434082-0.2453842,1.9629593-1.3421326,1.6785202-2.7836113
		C55.1658401,61.0378304,54.1342239,60.2055321,52.8188896,60.4650307z M53.5631828,64.2370758
		c-0.7448082,0.1469574-1.3246117-0.3876076-1.4952736-1.2525749c-0.1552086-0.7868538,0.1972466-1.4990883,0.9240189-1.6425476
		c0.7206841-0.1422157,1.318531,0.3888435,1.4773407,1.1937256C54.631588,63.3585014,54.2959251,64.0924835,53.5631828,64.2370758z"
		/>
	<polygon class="st1" points="58.857193,58.9081306 58.4846344,61.2497177 56.8017921,59.575428 55.7420425,59.9195404 
		57.1598167,64.286644 58.0333405,64.0030289 56.9453545,60.7711182 58.8837776,62.6970711 59.0002327,62.6592484 
		59.4393654,59.9677696 60.4556274,63.2165871 61.3289452,62.9330711 59.9111633,58.5659714 	"/>
	<path class="st1" d="M63.2941666,58.9748077c-0.5617752,0.0982132-0.9743156,0.154377-1.1107674-0.1400566
		c-0.1054268-0.2277603,0.0814171-0.5235367,0.4647903-0.7010078c0.4276962-0.1981812,0.8773422-0.0286446,1.0058517,0.0738983
		l0.5159187-0.7653122c-0.329998-0.231781-1.0115242-0.4356346-1.8614464-0.0419464
		c-0.8777466,0.4065628-1.300087,1.1554871-0.9629822,1.8831863c0.3524666,0.7611885,1.0960312,0.7203751,1.8010521,0.5962944
		c0.6279335-0.1155243,1.1405487-0.2179642,1.3310013,0.1931343c0.1440811,0.3111343-0.0469971,0.6560707-0.5359039,0.8824844
		c-0.5166359,0.2393036-0.9950294,0.0222626-1.2385521-0.168499l-0.5219955,0.7814941
		c0.3155632,0.2587814,1.1382828,0.5928917,2.1216621,0.1373787c1.016571-0.4708748,1.3853149-1.3501701,1.0404739-2.0945625
		C64.9392853,58.7391129,64.1479034,58.8222771,63.2941666,58.9748077z"/>
	<polygon class="st1" points="68.2219086,55.1521645 67.783699,54.4369354 64.5417938,56.4228668 64.9798889,57.1380959 
		66.1910324,56.3961792 68.151413,59.5963516 68.9710388,59.0942535 67.0106583,55.8940811 	"/>
	<path class="st1" d="M69.7595367,52.8056259c-1.0559387,0.855072-1.0643921,2.1772118-0.217041,3.2236633
		c0.8782654,1.0845871,2.1699982,1.298645,3.2069778,0.4590225c0.9847183-0.7973633,1.1089096-2.1029015,0.1844711-3.2445869
		C72.1019592,52.2163353,70.8013535,51.9620934,69.7595367,52.8056259z M72.1785202,55.7928772
		c-0.589798,0.4775696-1.3519135,0.2756805-1.9065781-0.4093513c-0.5045776-0.6230888-0.5255966-1.4173622,0.0499802-1.8833885
		c0.5708466-0.4622192,1.3471909-0.2718697,1.8634033,0.3655434C72.7129898,54.5174217,72.7588425,55.3229294,72.1785202,55.7928772
		z"/>
	<polygon class="st1" points="75.4759827,52.7163773 72.7245331,50.1738205 72.0722733,50.8796654 75.4441376,53.9955368 
		77.5712662,51.6936226 76.9508514,51.1203079 	"/>
	<polygon class="st1" points="79.4355927,47.6287918 78.19384,49.4417992 77.1890182,48.7534637 78.2646484,47.1829605 
		77.6031113,46.7298126 76.5273895,48.3003197 75.7800064,47.7884254 76.9975433,46.0108719 76.3107605,45.5404091 
		74.550209,48.1107979 78.3376083,50.7049828 80.1223755,48.0992546 	"/>
	<polygon class="st1" points="9.0390358,22.0242271 12.1859264,24.0695229 12.7097731,23.2635002 9.5628824,21.2182045 
		10.3369589,20.0272636 9.6336861,19.5700951 7.5616932,22.7581081 8.264967,23.2151661 	"/>
	
		<rect x="12.0569324" y="17.400486" transform="matrix(0.6414341 -0.7671781 0.7671781 0.6414341 -10.6146584 16.680603)" class="st1" width="0.9608556" height="4.5904737"/>
	<polygon class="st1" points="16.0444355,19.2413349 13.8332186,16.9006729 17.5214691,17.8723087 18.2531891,17.1940842 
		15.132472,13.8269539 14.4590864,14.4511824 16.6784573,16.800806 12.9685535,15.8325768 12.2502375,16.4983311 
		15.3709526,19.8654613 	"/>
	<path class="st1" d="M20.7406025,15.5171175c0.778614-0.5306482,1.0417175-1.1986742,1.1279755-1.7239618l-1.1819782-1.734271
		l-1.6635704,1.1337461l0.448,0.6573067l0.9303074-0.6341171l0.5135384,0.7534599
		c-0.0395699,0.1157331-0.1710739,0.5312662-0.5974293,0.8292046c-0.7079048,0.4824171-1.4931049,0.2104464-1.9858303-0.5126123
		c-0.4582996-0.672555-0.4384117-1.5450506,0.218895-1.9930429c0.4551086-0.3101072,0.9357681-0.2675447,1.1655884-0.2019987
		l0.213026-0.9152632c-0.3164959-0.0731707-1.0047188-0.1594286-1.8086758,0.3884315
		c-1.2944164,0.8821774-1.2525749,2.3125248-0.5978413,3.2732401
		C18.1704311,15.7878456,19.4663906,16.3855915,20.7406025,15.5171175z"/>
	<polygon class="st1" points="26.0463619,12.4244366 25.6610317,11.6729317 23.7276535,12.6641445 22.018837,9.3312397 
		21.1637669,9.7696457 23.2580147,13.8540621 	"/>
	<polygon class="st1" points="27.2042236,11.9620104 28.0955772,11.602952 27.3341827,9.7122459 27.9931355,6.6952052 
		26.9938869,7.0976501 26.5780468,9.1127501 24.9043732,7.9391255 23.9107857,8.3391962 26.4427261,10.0711946 	"/>
	<path class="st1" d="M30.5508461,8.5708685c0.6380291-0.0223589,1.1600227-0.0487461,1.2882271,0.3857479
		c0.0970802,0.3287592-0.1424236,0.6419544-0.6590576,0.7944794c-0.5460072,0.1610823-0.9874039-0.1234608-1.2004242-0.3478251
		l-0.6305141,0.6966782c0.2742424,0.3019609,1.0391426,0.7528439,2.0782795,0.4461403
		c1.0744858-0.3171139,1.5677261-1.1328192,1.3355293-1.9195642c-0.2720718-0.9217553-1.0669632-0.9552526-1.9336796-0.9291739
		c-0.5700207,0.0150433-0.9862728,0.0101981-1.0780964-0.300931c-0.0710087-0.2407451,0.1570606-0.5059147,0.5621834-0.625464
		c0.452116-0.1334596,0.8719788,0.1000657,0.9839993,0.2201295l0.6222725-0.6814227
		c-0.2924824-0.2774329-0.9367027-0.5787764-1.834959-0.3137097c-0.9276314,0.2737279-1.454874,0.9527755-1.2279377,1.7218008
		C29.0941124,8.5221224,29.835516,8.5905581,30.5508461,8.5708685z"/>
	<polygon class="st1" points="34.9225845,9.5884686 34.3232956,6.424264 36.9050179,9.2324028 37.8872643,9.0560713 
		37.0756836,4.5367489 36.1717567,4.6990666 36.7733078,7.8752265 34.1712875,5.058331 33.2071724,5.2314715 34.0187607,9.7506838 	
		"/>
	
		<rect x="38.9282379" y="4.3209496" transform="matrix(0.995555 -0.0941813 0.0941813 0.995555 -0.4479495 3.7409716)" class="st1" width="0.9609599" height="4.5904279"/>
	<polygon class="st1" points="42.2671471,8.7170105 42.1942863,5.4986997 44.2803955,8.6905203 45.2777939,8.67733 
		45.2173996,4.0880356 44.2995644,4.1000934 44.3726311,7.330565 42.267971,4.1268849 41.2889175,4.1397667 41.3493118,8.7290688 	
		"/>
	<path class="st1" d="M48.3643951,8.9899073c0.9384499,0.0893536,1.5677223-0.2566185,1.9698601-0.6056786l0.1987991-2.0900202
		l-2.0046959-0.190764l-0.0753326,0.7921119l1.1211739,0.1067634l-0.0863609,0.907845
		c-0.1045074,0.0638919-0.4711914,0.29949-0.9896774,0.2563028c-0.8531151-0.0811043-1.2834816-0.7923107-1.2006302-1.6635704
		c0.0771942-0.8104486,0.6500931-1.4691963,1.4423103-1.3937612c0.5483665,0.0521498,0.891037,0.3921371,1.0260468,0.5894957
		l0.7488213-0.5682621c-0.1967392-0.258472-0.6712151-0.7647982-1.6400719-0.8569303
		c-1.5598946-0.148407-2.4418678,0.9789495-2.5520325,2.1367078C46.2136726,7.5556421,46.8289299,8.8438749,48.3643951,8.9899073z"
		/>
	<path class="st1" d="M53.0536575,8.8567562c-0.5576439-0.1140862-0.8137512-0.5725927-0.8964043-0.8707447l-0.8837204,0.3190699
		c0.1002693,0.3953352,0.5638275,1.1525011,1.6252251,1.3696527c1.0974693,0.2245626,1.9158592-0.2639341,2.0803375-1.0675898
		c0.1926193-0.9414377-0.4934387-1.3441916-1.2708054-1.7281823c-0.5102463-0.2543468-0.8754883-0.4540806-0.8104591-0.7719073
		c0.0502968-0.2458992,0.3761673-0.3728666,0.7899437-0.2881532c0.4618073,0.0944042,0.7228546,0.4977756,0.7654152,0.6563802
		l0.869194-0.3094893c-0.1278915-0.3822408-0.5551758-0.9508123-1.472599-1.1384807
		c-0.9475174-0.1938519-1.7317924,0.1579871-1.8924637,0.9434962c-0.1680908,0.8215804,0.4542847,1.2301059,1.0951004,1.5486608
		c0.5737267,0.2798004,1.0469666,0.5015836,0.9561729,0.9453568C53.9398575,8.8006954,53.5814247,8.9647627,53.0536575,8.8567562z"
		/>
	<path class="st1" d="M57.039238,8.8123341l0.7528419,0.2388916l0.4003792,1.9769716l1.0795364,0.3425674l-0.5169334-2.1359873
		c0.5651665-0.0197926,1.0740738-0.3079453,1.2852402-0.9731855c0.3203049-1.0095572-0.3364868-1.5712247-1.1476593-1.8286672
		l-1.9141083-0.6074281l-1.388813,4.37679l0.9161911,0.2907257L57.039238,8.8123341z M57.6392479,6.9216275l0.8986702,0.2851605
		c0.4201622,0.133357,0.7025452,0.3770943,0.5636215,0.8147793c-0.1351051,0.4259434-0.5236397,0.4761305-0.9262848,0.3483391
		L57.27071,8.0828857L57.6392479,6.9216275z"/>
	<polygon class="st1" points="62.8985252,12.9604435 63.2349091,12.1987343 61.2242355,11.3107843 61.7164421,10.1963091 
		63.4582367,10.9655409 63.7822533,10.2318649 62.0404625,9.4626341 62.4065208,8.6337385 64.3779221,9.5043726 
		64.7143097,8.7426701 61.8636093,7.483707 60.0085602,11.684166 	"/>
	<polygon class="st1" points="64.6613388,13.9284678 65.4926071,14.4108839 67.3760071,11.165267 68.6043549,11.8780174 
		69.0253448,11.1526947 65.7373734,9.2447691 65.3163757,9.9700994 66.5447311,10.6828499 	"/>
	<polygon class="st1" points="68.1579056,16.1749382 68.9254913,16.7528915 71.1819534,13.7560482 72.3162079,14.609993 
		72.8204803,13.940217 69.7844772,11.6542788 69.2802124,12.3240547 70.4144745,13.1781025 	"/>
	<polygon class="st1" points="72.7458572,20.1995735 73.3262939,19.6025562 71.7504196,18.0705929 72.5995178,17.1970692 
		73.9647369,18.5241508 74.5237198,17.9490891 73.1586151,16.6220055 73.7901535,15.9723234 75.3353119,17.4743996 
		75.9156342,16.8773823 73.6813202,14.7054262 70.4808426,17.9976292 	"/>
	<polygon class="st1" points="73.9368057,21.6316776 76.5122375,19.6995335 75.1299133,23.2539196 75.7209549,24.0575676 
		79.4189987,21.3378563 78.875061,20.5982037 76.2898331,22.5375595 77.6711273,18.9612255 77.0909119,18.1723118 
		73.392868,20.892128 	"/>
	<rect x="33.5952377" y="42.3176651" class="st1" width="20.6386242" height="3.0511224"/>
	<path class="st1" d="M29.5527306,34.8868179c0.0756245,0.0770226,0.1754341,0.1745949,0.2913361,0.2874107
		c1.064846,1.0388107,3.543499,3.4599571,3.7511711,6.1802292h20.6386261
		c0.2076721-2.7202721,2.6863518-5.1414185,3.7511635-6.1802292c0.1159325-0.1128159,0.2157478-0.2103882,0.2913666-0.2874107
		c1.1428833-1.1671791,2.7921982-3.4636593,0.9979858-5.7289906c-2.422039-3.0211201-5.9612656-0.6899719-5.9612656-0.6899719
		s-0.0582504-0.120512-0.2054443-0.2691555c-0.0851402-0.0870438-0.2712364-0.2615585-0.5447083-0.4378014
		c-0.478447-0.2893372-1.0564423-0.4348106-1.7152634-0.4309063c-0.8439255,0.0134907-1.4562988,0.2505093-2.2316284,0.5508156
		c-0.4491081,0.1739788-0.9580307,0.3713589-1.5898628,0.5525131c-0.6166916,0.1859417-1.205555,0.3040562-1.7987328,0.3611622
		c-0.0048409,0.0004711-0.4342461,0.0188808-0.4342461,0.0188808l-0.1098938,0.0048084
		c0.0009842-0.0001259,0.0009842-0.1099758,0.0009842-0.1099758v-1.5001221v-0.0797787l0.0766106-0.021616
		c1.0323639-0.29105,1.7257195-1.0756855,1.7257195-1.9526138c0-0.9737663-0.8613472-1.8255787-2.0476112-2.0254822
		l-0.0879478-0.01474v-0.088913v-1.6731358v-0.1053219h0.1053734h1.0138435h0.10532v0.1053219v0.0409832
		c0,0.2442226,0.1987877,0.4431324,0.4432373,0.4431324c0.1183815,0,0.2297325-0.0460548,0.3132629-0.1297398
		c0.0838356-0.0839195,0.129921-0.1950932,0.129921-0.3133926v-0.0409832v-0.1053219h0.1053238h0.3091011
		c0.1184311,0,0.2296257-0.0460777,0.3133621-0.1297684c0.083786-0.0838909,0.1300774-0.1951389,0.1300774-0.3133354
		c0-0.1186066-0.0462914-0.2298851-0.1300774-0.3136501c-0.0837364-0.0836849-0.194931-0.1296883-0.3133621-0.1296883h-0.3091011
		h-0.1053238v-0.1053524v-0.0407238c0-0.118475-0.0460854-0.2297821-0.129921-0.3135185
		c-0.0835304-0.0837364-0.1948814-0.1295547-0.3132629-0.1295547c-0.1185837,0-0.2297821,0.0458183-0.3134155,0.1295547
		c-0.0837364,0.0837364-0.1298218,0.1950436-0.1298218,0.3135185v0.0407238v0.1053524h-0.10532h-1.0138435h-0.1053734v-0.1053524
		v-0.7108822v-0.1054478h0.1053734h0.0407753c0.1184311,0,0.2296295-0.0461349,0.3133659-0.1299
		c0.083683-0.0834789,0.1299744-0.1949635,0.1299744-0.313364c0-0.1183224-0.0462914-0.2297325-0.1299744-0.3132839
		c-0.0837364-0.083868-0.1949348-0.1299534-0.3133659-0.1299534h-0.0407753h-0.1053734v-0.1052189v-0.3092022
		c0-0.1182709-0.0460281-0.2296295-0.1296654-0.3133125c-0.0838928-0.083868-0.188591-0.1299248-0.3068581-0.1299248
		c-0.1182785,0-0.2229767,0.0460567-0.3068657,0.1299248c-0.0836334,0.083683-0.1296883,0.1950417-0.1296883,0.3133125v0.3092022
		v0.1052189h-0.1053505h-0.0407753c-0.1184273,0-0.2296295,0.0460854-0.3133888,0.1299534
		c-0.0836601,0.0835514-0.1299515,0.1949615-0.1299515,0.3132839c0,0.1184006,0.0462914,0.2298851,0.1299515,0.313364
		c0.0837593,0.083765,0.1949615,0.1299,0.3133888,0.1299h0.0407753h0.1053505v0.1054478v0.7108822v0.1053524h-0.1053505h-1.0138435
		h-0.1053238v-0.1053524v-0.0407238c0-0.118475-0.0460854-0.2297821-0.129818-0.3135185
		c-0.0836334-0.0837364-0.1948624-0.1295547-0.3134155-0.1295547c-0.1183739,0-0.2297325,0.0458183-0.3132629,0.1295547
		c-0.0838394,0.0837364-0.1299248,0.1950436-0.1299248,0.3135185v0.0407238v0.1053524h-0.1053429H40.952652
		c-0.1184235,0-0.2296295,0.0460033-0.313385,0.1296883c-0.0837669,0.083765-0.1300545,0.1950436-0.1300545,0.3136501
		c0,0.1181965,0.0462875,0.2294445,0.1300545,0.3133354c0.0837555,0.0836906,0.1949615,0.1297684,0.313385,0.1297684h0.3090782
		h0.1053429v0.1053219v0.0409832c0,0.1182995,0.0460854,0.2294731,0.1299248,0.3133926
		c0.0835304,0.0836849,0.1948891,0.1297398,0.3132629,0.1297398c0.2444267,0,0.4432335-0.1989098,0.4432335-0.4431324v-0.0409832
		v-0.1053219h0.1053238h1.0138435h0.1053505v0.1053219v1.6731358v0.088913l-0.0879555,0.01474
		c-1.1862335,0.1999035-2.0475845,1.0517159-2.0475845,2.0254822c0,0.8769283,0.6933556,1.6615639,1.7256927,1.9526138
		l0.0766411,0.021616v0.0797787v1.5001221c0,0,0,0.1098499,0.0009842,0.1099758l-0.1098976-0.0048084
		c0,0-0.4293976-0.0184097-0.4342346-0.0188808c-0.5931854-0.057106-1.1820526-0.1752205-1.7987442-0.3611622
		c-0.6318207-0.1811543-1.1407738-0.3785343-1.5898628-0.5525131c-0.7753258-0.3003063-1.3877029-0.5373249-2.2316475-0.5508156
		c-0.6588211-0.0039043-1.2367973,0.1415691-1.7152634,0.4309063c-0.2734489,0.1762428-0.4595451,0.3507576-0.5447159,0.4378014
		c-0.1471634,0.1486435-0.2054138,0.2691555-0.2054138,0.2691555s-3.5392494-2.3311481-5.9612656,0.6899719
		C26.7605305,31.4231586,28.4098225,33.7196388,29.5527306,34.8868179z M52.5707626,35.7881622
		c0.0236664-0.0932579,0.0482674-0.189682,0.0754662-0.2875214c0.045826-0.1388626,0.2111664-0.6085968,0.4822464-1.0065575
		c0.1189995-0.1600876,0.2514725-0.3256416,0.3658981-0.4670334c0.0707855-0.0874557,0.1389732-0.1688538,0.2050781-0.2477036
		c0.2721176-0.3241272,0.4869728-0.5800476,0.6307335-0.9626122c0.3004112-0.6869049,0.3248062-1.3859806,0.0786934-2.204319
		c-0.0362015-0.1505165-0.0715179-0.2670231-0.1097984-0.3620224l-0.0316238-0.0787201c0,0,0.7668495-0.5418472,1.637146-0.5773144
		c0.3491478-0.0229912,0.6671944,0.0317249,0.9454002,0.1620598c0.6410789,0.300808,1.075428,1.1128292,0.989502,1.8425636
		c-0.0031204,0.051878-0.0073318,0.1001968-0.0130539,0.1476269c-0.1227455,1.0327339-1.4388275,2.2871017-1.9990349,2.7786255
		c-0.6026497,0.5292091-1.1663361,0.9499741-1.6756248,1.2507019c-0.693409,0.4095612-0.9003639,0.889492-0.6149292,1.4263992
		c0.2348328,0.4425049,0.2342072,0.922718-0.0020294,1.2537422c-0.2543831,0.3569984-0.7493134,0.4975624-1.393364,0.3956451
		c-0.6441536-0.1018105-1.0108299-0.3145866-1.0898895-0.6329956c-0.0910645-0.3663139,0.2128296-0.8142776,0.9027557-1.3318901
		c0.1535339-0.1151009,0.2566185-0.2171936,0.3250122-0.3220024C52.4237823,36.369381,52.4917107,36.0998878,52.5707626,35.7881622z
		 M45.0646248,30.7346401c1.2934036,0.0119114,2.5423889-0.2619781,3.9306068-0.8620758
		c0.4211349-0.182066,0.7776146-0.300909,1.0894165-0.3633537c1.1621284-0.1774559,1.8355637,0.6187229,2.0605621,1.3541031
		c0.0505028,0.1759567,0.086235,0.3550224,0.1061516,0.5344124c0.0389099,0.8564587-0.3494568,1.5554829-0.6820679,1.9923229
		c-0.1317406,0.1729622-0.2939606,0.3387756-0.481823,0.4924088c-0.2439346,0.1901321-0.5689964,0.3746605-0.8714409,0.4953766
		c-0.049572,0.0182571-0.0948181,0.0345345-0.1368942,0.0487328c-0.00494,0.0017738-0.1045418,0.0292854-0.1045418,0.0292854
		c-0.0271988,0.0076752-0.0487823,0.0134964-0.0643845,0.0181236c-0.0037498,0.0011253-0.1045456,0.0274086-0.1045456,0.0274086
		c-0.5002899,0.1287041-0.8408051,0.4314079-0.9591331,0.852829c-0.1146812,0.4082527,0.0057793,0.8718262,0.3065567,1.1807938
		c0.3875847,0.3986855,0.4893112,0.9116745,0.2720146,1.3730621c-0.2882957,0.6123199-1.0444298,0.9777946-1.8811798,0.909771
		c-1.0163422-0.0964317-1.3560219-0.5090828-1.4623337-0.8387756c-0.1802139-0.5586548,0.1804771-1.2491493,0.6299019-1.6423454
		c0.2500191-0.2186584,0.3817635-0.4967537,0.3814468-0.8039322c-0.0003586-0.3689919-0.1935272-0.7658882-0.5040817-1.0363121
		c-0.0136833-0.0120659-0.0271034-0.0241852-0.0399475-0.0357056l-0.0225182-0.0204163
		c-0.8953171-0.8863411-1.4653511-2.1943893-1.5676079-3.5926933l-0.0082703-0.1141663L45.0646248,30.7346401z
		 M35.5777321,31.3977261c0.0199242-0.17939,0.0556793-0.3584557,0.1061821-0.5344124
		c0.2249718-0.7353802,0.8984337-1.531559,2.0605583-1.3541031c0.3118057,0.0624447,0.668293,0.1812878,1.0894203,0.3633537
		c1.3882179,0.6000977,2.6372032,0.8739872,3.930603,0.8620758l0.1140862-0.0011463l-0.0082626,0.1141663
		c-0.1022263,1.398304-0.6722679,2.7063522-1.5675774,3.5926933l-0.022522,0.0204163
		c-0.0128517,0.0115204-0.0262909,0.0236397-0.0399742,0.0357056c-0.310524,0.2704239-0.5036926,0.6673203-0.5040627,1.0363121
		c-0.0003357,0.3071785,0.1314087,0.5852737,0.3814468,0.8039322c0.4494286,0.3931961,0.8101196,1.0836906,0.6299057,1.6423454
		c-0.1063156,0.3296928-0.4459915,0.7423439-1.4623375,0.8387756c-0.8367462,0.0680237-1.5928764-0.297451-1.881176-0.909771
		c-0.2172966-0.4613876-0.1155624-0.9743767,0.2719917-1.3730621c0.3007774-0.3089676,0.4212608-0.772541,0.3065491-1.1807938
		c-0.1182976-0.4214211-0.4588089-0.7241249-0.9591255-0.852829c0,0-0.1008034-0.0262833-0.1045151-0.0274086
		c-0.0156097-0.0046272-0.0371895-0.0104485-0.0644226-0.0181236c0,0-0.0995712-0.0275116-0.1045113-0.0292854
		c-0.042099-0.0141983-0.0873528-0.0304756-0.1368942-0.0487328c-0.3024673-0.1207161-0.6275063-0.3052444-0.8714371-0.4953766
		c-0.1878891-0.1536331-0.35009-0.3194466-0.4818268-0.4924088C35.9272156,32.9532089,35.5388527,32.2541847,35.5777321,31.3977261z
		 M30.9790993,29.7564182c0.2782345-0.1303349,0.5962734-0.185051,0.9454231-0.1620598
		c0.8702965,0.0354671,1.637146,0.5773144,1.637146,0.5773144l-0.0316544,0.0787201
		c-0.0382767,0.0949993-0.0735664,0.2115059-0.1097603,0.3620224c-0.2461205,0.8183384-0.221756,1.5174141,0.0786896,2.204319
		c0.1437302,0.3825645,0.3586121,0.638485,0.6307297,0.9626122c0.0661125,0.0788498,0.1342697,0.1602478,0.2050552,0.2477036
		c0.1144485,0.1413918,0.2469215,0.3069458,0.365921,0.4670334c0.2710571,0.3979607,0.4363976,0.8676949,0.4822159,1.0065575
		c0.0272255,0.0978394,0.0518341,0.1942635,0.0754929,0.2875214c0.0790596,0.3117256,0.1469612,0.5812187,0.29142,0.7766724
		c0.0683899,0.1048088,0.1714554,0.2069016,0.325016,0.3220024c0.6899223,0.5176125,0.9938164,0.9655762,0.9027519,1.3318901
		c-0.0790596,0.318409-0.4457359,0.5311852-1.0899124,0.6329956c-0.6440506,0.1019173-1.1389885-0.0386467-1.3933411-0.3956451
		c-0.2362328-0.3310242-0.2368584-0.8112373-0.0020294-1.2537422c0.2854309-0.5369072,0.0784569-1.0168381-0.6149216-1.4263992
		c-0.5093193-0.3007278-1.0729866-0.7214928-1.6756363-1.2507019c-0.5602036-0.4915237-1.8762875-1.7458916-1.9990273-2.7786255
		c-0.0057487-0.04743-0.0099392-0.0957489-0.0130577-0.1476269C29.9037018,30.8692474,30.3380413,30.0572262,30.9790993,29.7564182z
		"/>
</g>
</svg>
